<svg width="211" height="60" viewBox="0 0 211 60" fill="none" xmlns="http://www.w3.org/2000/svg">
<path d="M30.7824 2.14504C33.3924 2.14004 35.8224 3.05504 38.1974 5.09004C40.1949 6.80254 41.1149 8.89004 41.8299 10.4875C42.9674 13.0325 42.6324 13.2675 41.3799 13.9825C41.1739 14.0964 40.9559 14.1869 40.7299 14.2525C41.0299 18.0075 43.1349 18.345 43.8099 19.665C44.2499 20.515 44.4649 21.545 42.4274 21.8675C40.3799 22.1925 41.0474 23.7675 38.0199 23.905C35.8599 24.0075 34.5899 23.2625 33.8574 22.485C33.9284 24.6551 33.3888 26.8015 32.2999 28.68C32.8249 28.94 33.9749 29.445 35.5624 29.735C37.7649 30.135 40.9499 28.43 42.1724 28.43C42.5549 28.43 42.9549 28.375 43.3974 28.3675C44.3324 28.35 45.4649 28.5475 47.0724 29.9225L47.1574 29.735C46.2174 28.4475 46.6274 25.0225 48.3824 20.8975C50.4099 16.1375 52.8899 12.0625 54.8974 13.15V13.14C56.7099 14.12 55.7974 17.93 53.7724 22.69C52.0299 26.78 50.3299 30.0375 48.5649 30.2975L48.3674 30.9C50.4524 32.555 50.0349 33.345 49.4699 34.7C48.8149 36.2475 49.7549 37.6375 46.4149 38.2075C46.0532 38.2691 45.6822 38.2478 45.3299 38.145C45.0849 38.725 44.8874 39.175 44.8874 39.175C44.8874 39.175 44.5624 40.0675 43.6924 39.755C42.7999 39.43 43.0349 38.785 43.0349 38.785L43.8949 37.2225C43.3599 36.645 43.0774 35.9925 43.1524 35.7575C43.4849 35.0225 44.2899 35.68 44.2099 34.8675C42.6624 35.0325 41.1949 34.1325 40.8699 34.0525C40.5449 33.975 40.7049 33.24 38.0974 34.8675C37.0624 35.5125 36.1124 36.16 35.1474 36.7725C35.5299 38.7325 37.7899 41.8125 39.4974 42.0375C44.8774 41.7925 44.8774 45.3875 44.4749 45.4625C43.6624 43.9175 42.3599 44.24 40.6449 45.22C38.9299 46.2 40.9699 46.0325 41.7024 46.6C38.1099 48.12 34.5824 45.2575 33.5849 44.3475C32.1649 46.605 29.4024 48.205 27.4899 49.06C25.1299 50.1175 23.3649 51.5175 25.1299 52.4C26.5999 53.135 27.4124 51.2625 29.5374 50.93C31.6524 50.605 33.5349 51.42 33.6999 52.645C32.8099 52.155 32.1524 52.155 32.1524 52.155C32.1524 52.155 32.8874 52.645 32.9649 53.455C33.0449 54.27 32.8899 53.86 32.3974 53.86C31.1724 53.86 31.0174 52.8 29.9474 52.9675C27.2549 53.2125 27.0974 54.3475 25.6299 54.5175C24.1599 54.6725 21.7124 53.8675 22.0449 51.9875C22.3699 50.1175 24.8949 48.805 27.2649 47.825C29.6249 46.845 33.2199 43.75 32.7299 40.9675C32.4899 39.6025 31.8524 39.0475 31.2674 38.8375C29.5599 39.5125 27.7674 39.9625 25.9424 40.165C20.6924 40.8075 18.9324 38.31 18.4849 37.44C15.2299 39.7725 10.6024 40.6275 8.87992 43.495C9.61492 39.42 11.8174 38.1075 16.9599 35.7475C22.0899 33.3925 23.1549 28.52 23.1599 28.495V28.48V28.495C23.1549 28.57 22.9074 32.9275 20.0424 36.07C21.0174 37.935 22.5024 38.8825 25.9424 38.53C29.8599 38.13 35.5124 34.73 39.4899 32.74C42.2624 31.35 43.4849 33.965 45.4449 34.1225C48.1699 34.3475 45.9349 37.2175 45.9349 37.2175C45.9349 37.2175 47.9824 36.8925 48.3849 36.16C48.7849 35.425 48.1374 34.935 48.7849 34.2875C49.4399 33.6325 49.3524 32.8975 48.4224 32.2125C47.5974 31.605 47.0799 30.7925 44.3874 29.5675C41.6924 28.3425 39.4024 30.7025 36.3049 31.4375C33.9749 31.9875 31.8799 30.98 30.9824 30.44C28.5924 33 25.6299 33.495 25.6299 33.495V33.485C28.5674 31.77 30.3999 28.6575 31.1924 25.9625C31.7774 23.975 31.3674 21.825 31.1099 20.8325C27.3349 20.7575 24.5424 17.1375 24.5424 17.1375H24.5524C24.5524 17.1375 29.3624 20.2325 33.2774 18.93C37.1874 17.6275 36.5399 10.045 36.6199 10.4475C36.6574 10.6425 37.2749 12.1775 37.3699 14.0375C38.2874 13.9275 41.6324 13.4125 40.9299 11.82C38.7199 6.84504 34.7149 3.73254 27.6499 3.38504C28.9449 10.3975 22.9899 8.48004 13.6099 13.2875C4.21742 18.1075 1.63242 26.12 2.76742 35.425C3.45992 41.0375 7.06242 47.215 13.7349 51.2325C15.3176 51.0692 16.7841 50.3266 17.8524 49.1475C19.8899 46.865 18.7424 43.2725 22.0924 41.9675C23.2632 41.4969 24.5107 41.2461 25.7724 41.2275C26.9999 41.22 27.7249 41.4775 27.7249 41.4775C27.7249 41.4775 21.7699 42.29 21.2799 45.72C20.7899 49.1475 19.9799 50.695 18.6749 51.7525C18.0799 52.2175 17.3999 52.5625 16.6699 52.765C20.5799 54.515 25.3249 55.5825 30.9274 55.5825C48.8024 55.5825 55.9274 41.4 56.6899 37.6C57.5399 33.3975 59.9999 32.4 59.9999 36.885C59.9999 45.455 47.1599 57.855 30.9974 57.855C14.8349 57.855 5.86242 49.1175 2.18992 42.105C-1.48508 35.08 -0.500078 24.395 4.88492 17.95C10.2699 11.495 17.5874 10.035 22.8849 8.32254C27.9274 6.69004 27.6599 3.67254 27.6224 3.38504C26.7974 3.34754 25.9674 3.34254 25.1399 3.37504C27.1299 2.58004 28.9974 2.14754 30.7824 2.14504ZM54.0299 13.375C53.1349 13.39 51.0549 16.65 49.3724 20.86C47.6099 25.285 47.0999 29.145 47.6474 29.45C47.9524 29.6175 50.5674 26.4425 52.3299 22.025C54.0949 17.6 54.9649 13.71 54.1524 13.395C54.1125 13.38 54.07 13.3732 54.0274 13.375H54.0299ZM37.3799 14.63C37.3549 16.5775 36.6724 18.7475 34.1699 20.075C33.9699 20.1825 33.7749 20.275 33.5799 20.355C33.6624 20.7013 33.7258 21.0518 33.7699 21.405C34.4449 21.7825 35.4499 22.255 36.5499 22.4375C38.5099 22.76 39.8999 21.4475 40.4699 20.9675C41.0374 20.4875 41.8999 20.85 42.2999 20.9275C42.6999 21.0175 43.5149 20.7725 42.9474 20.5275C42.3699 20.2825 41.7224 19.4275 41.2324 18.3725C40.7124 16.29 39.9824 15.3975 39.5999 15.0475C38.9799 15.3525 38.1524 15.12 37.5999 14.7475C37.5249 14.71 37.4499 14.6725 37.3799 14.63ZM53.3699 15.045H53.4049L53.3149 15.08C53.2999 15.09 53.2899 15.105 53.2774 15.12C53.3174 15.295 53.2949 15.485 53.2949 15.6825C53.3002 15.8852 53.275 16.0875 53.2199 16.2825C53.2349 16.32 53.2199 16.3825 53.2199 16.43C53.1724 16.49 53.2099 16.54 53.1974 16.59C53.2724 16.6625 53.3824 16.7475 53.3324 16.845C53.3074 16.9075 53.2324 16.9325 53.1599 16.955C53.1249 17.13 53.0749 17.3225 53.0374 17.52C53.0374 17.57 53.0374 17.6425 53.0274 17.69C52.9899 17.815 52.9524 17.9225 52.9149 18.0575C52.8899 18.1675 52.9149 18.3775 52.7949 18.4C52.7449 18.525 52.7199 18.6225 52.6599 18.745C52.6349 18.755 52.6099 18.7325 52.5849 18.745V18.7475C52.5732 18.8994 52.5481 19.05 52.5099 19.1975C52.5099 19.2475 52.4999 19.3325 52.4999 19.3925C52.4374 19.4775 52.4749 19.54 52.4499 19.6125C52.5374 19.7125 52.6474 19.81 52.5849 19.955C52.5499 20.055 52.4499 20.08 52.3649 20.1275C52.2899 20.36 52.2174 20.6425 52.1449 20.8975C52.1324 20.9725 52.1199 21.0575 52.0949 21.1325C52.0349 21.29 51.9599 21.45 51.9124 21.6325C51.8624 21.7825 51.8749 22.05 51.7174 22.075C51.6424 22.2325 51.6049 22.355 51.5199 22.515C51.4824 22.54 51.4599 22.5025 51.4224 22.515C51.3849 22.565 51.3724 22.6375 51.3374 22.6875C51.3124 22.7125 51.2749 22.7125 51.2499 22.7475C51.1999 22.8225 51.2149 22.93 51.1649 23.0425C51.1132 23.0889 51.0679 23.1419 51.0299 23.2L51.0174 23.225C50.9599 23.38 50.9324 23.565 50.8624 23.715C50.9199 23.2225 50.9749 22.65 51.0199 22.06C51.0424 21.635 51.0749 21.105 51.1124 20.5625C51.1555 19.8212 51.1471 19.0777 51.0874 18.3375L51.1649 18.18L51.3249 17.8725C51.3599 17.495 51.3899 17.2325 51.3999 17.2725C51.4278 17.3876 51.447 17.5046 51.4574 17.6225C51.5449 17.47 51.6349 17.3125 51.7399 17.14C51.8399 16.9675 51.9249 16.785 52.0349 16.65C52.1099 16.55 52.2299 16.3575 52.3174 16.175C52.3424 16.1125 52.3424 16.05 52.4374 16.0375C52.5249 15.9275 52.5974 15.7925 52.6949 15.695C52.7199 15.67 52.7574 15.6575 52.7824 15.645C52.8074 15.62 52.8174 15.585 52.8549 15.56C52.9149 15.51 53.0274 15.4625 53.0999 15.365C53.1124 15.34 53.1249 15.315 53.1499 15.29C53.1799 15.2525 53.2249 15.1775 53.2749 15.12L53.2724 15.095L53.3149 15.08C53.3306 15.0646 53.3493 15.0527 53.3699 15.045ZM50.8874 18.6775C50.7449 20.4875 50.6374 22.3025 50.5674 24.115C50.5277 24.1931 50.4902 24.2723 50.4549 24.3525C50.3324 24.645 50.1499 24.9875 50.0274 25.33L49.9899 25.5275C49.9399 25.6625 49.8674 25.795 49.8299 25.93C49.7549 26.14 49.6599 26.505 49.4624 26.7025C49.4524 26.7275 49.4024 26.7525 49.3774 26.7775C49.3524 26.8125 49.3649 26.8625 49.3274 26.91L49.2849 26.9375L49.5774 23.4075C49.5924 22.7575 49.6599 22.12 49.7524 21.5425L49.7449 21.4625C49.7824 21.255 49.8074 21.095 49.8674 20.8625L49.8924 20.7875C50.0874 19.8275 50.3024 19.175 50.3024 19.175L50.2224 19.945C50.2524 19.875 50.2849 19.805 50.3224 19.735C50.3574 19.66 50.4174 19.6 50.4549 19.515C50.4674 19.4775 50.4799 19.415 50.4924 19.3675C50.6074 19.13 50.7474 18.9075 50.8874 18.6775ZM49.3899 22.625C49.2074 23.8875 49.0724 25.5 49.2399 26.985C49.2249 27.0125 49.2149 27.0425 49.1949 27.07C49.1324 27.13 49.0449 27.1675 48.9849 27.24C48.9499 27.29 48.9249 27.365 48.8749 27.425C48.8217 27.493 48.765 27.5581 48.7049 27.62L48.4849 27.94C48.4287 28.0375 48.3429 28.1146 48.2399 28.16C48.1899 28.185 48.1149 28.1725 48.0549 28.185C48.0199 28.135 48.0549 28.06 48.0549 28C48.0549 27.975 48.0299 27.94 48.0299 27.915C48.0299 27.84 48.0199 27.705 48.0299 27.6325C48.0299 27.5575 48.0924 27.4975 48.1174 27.3875C48.1299 27.3025 48.1174 27.205 48.1174 27.1075C48.1174 27.07 48.1299 27.02 48.1299 26.9575C48.1299 26.885 48.1299 26.85 48.1399 26.75C48.1488 26.64 48.1454 26.5293 48.1299 26.42C48.1799 26.1625 48.2024 25.955 48.2749 25.65C48.2999 25.515 48.3624 25.27 48.4249 25.11C48.4724 24.9525 48.5324 24.7925 48.5824 24.62C48.6324 24.45 48.6924 24.2775 48.7524 24.1075C48.7899 23.9975 48.8524 23.8975 48.9024 23.775C48.9249 23.715 48.9249 23.6425 48.9499 23.5675C48.9999 23.42 49.0599 23.2625 49.1324 23.1275L49.3399 22.7225L49.3899 22.625ZM33.7199 37.64C33.3949 37.825 33.0624 38.005 32.7199 38.1775C33.4274 38.685 34.9824 40.1225 34.3449 42.615C34.3167 42.726 34.285 42.8361 34.2499 42.945C35.5624 44.7675 37.4324 45.725 38.3924 45.865C39.4424 46.0225 38.9899 45.455 38.8324 44.8875C38.6674 44.3175 39.8124 44.1525 40.4574 43.75C41.1074 43.34 40.7824 42.6925 38.6674 43.015C36.7624 43.315 34.0849 39.1525 33.7199 37.64Z" fill="#D30707"/>
<path d="M77.432 41.336C79.736 41.336 81.632 40.424 83.096 38.72L81.224 36.512C80.264 37.544 79.088 38.264 77.552 38.264C74.744 38.264 72.92 35.936 72.92 32.072C72.92 28.256 74.936 25.952 77.624 25.952C78.968 25.952 80 26.576 80.912 27.44L82.76 25.184C81.608 23.984 79.808 22.904 77.552 22.904C73.064 22.904 69.296 26.336 69.296 32.192C69.296 38.12 72.944 41.336 77.432 41.336ZM91.2854 41.336C94.6454 41.336 97.7414 38.744 97.7414 34.28C97.7414 29.816 94.6454 27.224 91.2854 27.224C87.9254 27.224 84.8294 29.816 84.8294 34.28C84.8294 38.744 87.9254 41.336 91.2854 41.336ZM91.2854 38.456C89.4614 38.456 88.4294 36.824 88.4294 34.28C88.4294 31.76 89.4614 30.104 91.2854 30.104C93.1094 30.104 94.1414 31.76 94.1414 34.28C94.1414 36.824 93.1094 38.456 91.2854 38.456ZM105.421 41.336C106.813 41.336 108.157 40.568 109.141 39.608H109.237L109.501 41H112.357V21.848H108.853V26.576L108.973 28.688C108.013 27.8 107.077 27.224 105.565 27.224C102.661 27.224 99.9249 29.912 99.9249 34.28C99.9249 38.696 102.085 41.336 105.421 41.336ZM106.333 38.432C104.557 38.432 103.549 37.04 103.549 34.256C103.549 31.568 104.821 30.128 106.333 30.128C107.173 30.128 108.037 30.392 108.853 31.136V37.04C108.061 38.048 107.269 38.432 106.333 38.432ZM121.994 41.336C123.65 41.336 125.354 40.76 126.674 39.848L125.474 37.688C124.514 38.288 123.554 38.624 122.45 38.624C120.458 38.624 119.018 37.472 118.73 35.264H127.01C127.106 34.952 127.178 34.304 127.178 33.632C127.178 29.936 125.258 27.224 121.562 27.224C118.37 27.224 115.298 29.936 115.298 34.28C115.298 38.72 118.226 41.336 121.994 41.336ZM118.682 32.912C118.946 30.968 120.194 29.96 121.61 29.96C123.338 29.96 124.154 31.112 124.154 32.912H118.682ZM135.521 41H139.049V31.76C139.985 30.752 140.849 30.248 141.617 30.248C142.889 30.248 143.513 30.968 143.513 33.056V41H147.017V31.76C147.977 30.752 148.841 30.248 149.609 30.248C150.881 30.248 151.481 30.968 151.481 33.056V41H155.009V32.624C155.009 29.24 153.689 27.224 150.833 27.224C149.081 27.224 147.785 28.28 146.561 29.576C145.913 28.088 144.785 27.224 142.865 27.224C141.113 27.224 139.865 28.184 138.737 29.36H138.665L138.401 27.56H135.521V41ZM158.654 41H162.182V27.56H158.654V41ZM160.43 25.4C161.63 25.4 162.47 24.632 162.47 23.456C162.47 22.304 161.63 21.536 160.43 21.536C159.206 21.536 158.366 22.304 158.366 23.456C158.366 24.632 159.206 25.4 160.43 25.4ZM165.943 41H169.471V32.984C170.215 31.04 171.487 30.344 172.543 30.344C173.095 30.344 173.479 30.416 173.959 30.56L174.559 27.512C174.151 27.344 173.719 27.224 172.975 27.224C171.583 27.224 170.143 28.184 169.159 29.936H169.087L168.823 27.56H165.943V41ZM176.396 41H179.924V32.984C180.668 31.04 181.94 30.344 182.996 30.344C183.548 30.344 183.932 30.416 184.412 30.56L185.012 27.512C184.604 27.344 184.172 27.224 183.428 27.224C182.036 27.224 180.596 28.184 179.612 29.936H179.54L179.276 27.56H176.396V41ZM192.184 41.336C195.544 41.336 198.64 38.744 198.64 34.28C198.64 29.816 195.544 27.224 192.184 27.224C188.824 27.224 185.728 29.816 185.728 34.28C185.728 38.744 188.824 41.336 192.184 41.336ZM192.184 38.456C190.36 38.456 189.328 36.824 189.328 34.28C189.328 31.76 190.36 30.104 192.184 30.104C194.008 30.104 195.04 31.76 195.04 34.28C195.04 36.824 194.008 38.456 192.184 38.456ZM201.591 41H205.119V32.984C205.863 31.04 207.135 30.344 208.191 30.344C208.743 30.344 209.127 30.416 209.607 30.56L210.207 27.512C209.799 27.344 209.367 27.224 208.623 27.224C207.231 27.224 205.791 28.184 204.807 29.936H204.735L204.471 27.56H201.591V41Z" fill="#D30707"/>
</svg>
