<svg width="166" height="60" viewBox="0 0 166 60" fill="none" xmlns="http://www.w3.org/2000/svg">
<path d="M57.8925 11.0299C56.2025 11.7399 55.9175 11.8049 53.71 11.9599C52.085 12.0724 51.8175 12.1024 50.68 12.4824C48.805 13.0974 47.1925 14.3574 45.63 16.4574C44.89 17.4524 42.5075 21.2399 42.5075 21.4274C42.5075 21.5699 40.8825 23.9224 40.22 24.7274C38.785 26.5099 37.52 27.4249 34.87 28.7024C32.945 29.6024 31.81 30.0124 24.615 32.3949C21.9325 33.2774 19.2825 34.2399 18.6975 34.5549C16.5675 35.6774 14.91 37.1449 13.19 39.3999C10.6825 42.6999 10.76 42.6824 5.585 41.7674C5.02406 41.6994 4.46134 41.6468 3.8975 41.6099C2.2875 41.4849 1.34 41.7199 0.5675 42.4449L0 42.9824L0.4425 43.2024C0.6775 43.3274 1.325 43.7874 1.845 44.1974C2.3825 44.6224 2.9975 45.0649 3.22 45.1749C3.44 45.2849 3.645 45.3949 3.6775 45.4274C3.7075 45.4599 3.455 45.8524 3.1075 46.3099C2.02 47.7624 1.625 48.4874 1.6725 48.9299C1.72 49.3399 1.7525 49.3549 2.7475 49.3549C4.04 49.3399 4.8125 49.2149 5.9 48.8349C7.525 48.2524 11.045 46.4849 12.86 45.3349C14.8 44.0849 17.1525 42.8399 17.75 42.7299C17.955 42.6799 18.635 42.5549 19.235 42.4449C20.685 42.1774 22.895 42.2074 25.7025 42.5699C25.9725 42.6024 26.635 42.6824 27.2025 42.7299C27.77 42.7924 28.2775 42.8724 28.3375 42.9199C28.4025 42.9499 29.5225 43.0124 30.8325 43.0599C33.1675 43.1249 33.5925 43.0774 34.0825 42.5874C34.3975 42.2549 35.045 41.0099 35.3275 40.1249C35.85 38.5174 36.37 37.8224 36.2425 38.8949C35.96 41.3099 35.4375 43.1249 34.46 44.9224C33.8125 46.1699 32.8025 47.6524 32.125 48.4099C31.32 49.2774 31.3375 49.3099 32.345 49.1974C33.8925 49.0399 36.0225 48.2049 37.585 47.1474C39.6525 45.7424 41.7025 42.9199 43.06 39.5724C43.3275 38.8974 43.61 39.0224 43.5175 39.7799C43.485 40.0149 43.4225 40.5674 43.375 41.0249L43.2975 41.8449L44.18 41.3399C46.2625 40.1399 47.715 38.1849 49.4975 34.1299C50.065 32.8349 51.69 26.8249 52.18 24.1899C52.3571 23.3096 52.5833 22.4399 52.8575 21.5849C53.175 20.5124 53.3475 20.1974 54.0575 19.4399C54.515 18.9649 55.62 18.0524 56.5025 17.4199C58.3025 16.1574 58.885 15.5449 59.47 14.4074C59.99 13.3649 60.18 11.5824 59.8 11.0149C59.47 10.5099 59.09 10.5249 57.8925 11.0299Z" fill="#003545"/>
<path d="M70.184 41H73.376V33.584C73.376 31.904 73.088 29.432 72.92 27.752H73.016L74.432 31.928L77.192 39.392H79.232L81.968 31.928L83.408 27.752H83.528C83.336 29.432 83.072 31.904 83.072 33.584V41H86.312V23.216H82.376L79.424 31.544C79.04 32.648 78.728 33.824 78.344 34.952H78.224C77.864 33.824 77.528 32.648 77.144 31.544L74.12 23.216H70.184V41ZM93.6924 41.336C95.2284 41.336 96.5724 40.568 97.7484 39.56H97.8444L98.0844 41H100.964V33.152C100.964 29.264 99.2124 27.224 95.8044 27.224C93.6924 27.224 91.7724 28.016 90.1884 29L91.4604 31.328C92.7084 30.608 93.9084 30.056 95.1564 30.056C96.8124 30.056 97.3884 31.064 97.4604 32.384C92.0364 32.96 89.7084 34.472 89.7084 37.352C89.7084 39.632 91.2924 41.336 93.6924 41.336ZM94.8444 38.576C93.8124 38.576 93.0684 38.12 93.0684 37.064C93.0684 35.864 94.1724 34.952 97.4604 34.544V37.256C96.5964 38.096 95.8524 38.576 94.8444 38.576ZM104.56 41H108.088V32.984C108.832 31.04 110.104 30.344 111.16 30.344C111.712 30.344 112.096 30.416 112.576 30.56L113.176 27.512C112.768 27.344 112.336 27.224 111.592 27.224C110.2 27.224 108.76 28.184 107.776 29.936H107.704L107.44 27.56H104.56V41ZM115.013 41H118.541V27.56H115.013V41ZM116.789 25.4C117.989 25.4 118.829 24.632 118.829 23.456C118.829 22.304 117.989 21.536 116.789 21.536C115.565 21.536 114.725 22.304 114.725 23.456C114.725 24.632 115.565 25.4 116.789 25.4ZM125.614 41.336C127.15 41.336 128.494 40.568 129.67 39.56H129.766L130.006 41H132.886V33.152C132.886 29.264 131.134 27.224 127.726 27.224C125.614 27.224 123.694 28.016 122.11 29L123.382 31.328C124.63 30.608 125.83 30.056 127.078 30.056C128.734 30.056 129.31 31.064 129.382 32.384C123.958 32.96 121.63 34.472 121.63 37.352C121.63 39.632 123.214 41.336 125.614 41.336ZM126.766 38.576C125.734 38.576 124.99 38.12 124.99 37.064C124.99 35.864 126.094 34.952 129.382 34.544V37.256C128.518 38.096 127.774 38.576 126.766 38.576ZM141.21 41.336C142.602 41.336 143.946 40.568 144.93 39.608H145.026L145.29 41H148.146V21.848H144.642V26.576L144.762 28.688C143.802 27.8 142.866 27.224 141.354 27.224C138.45 27.224 135.714 29.912 135.714 34.28C135.714 38.696 137.874 41.336 141.21 41.336ZM142.122 38.432C140.346 38.432 139.338 37.04 139.338 34.256C139.338 31.568 140.61 30.128 142.122 30.128C142.962 30.128 143.826 30.392 144.642 31.136V37.04C143.85 38.048 143.058 38.432 142.122 38.432ZM158.671 41.336C161.623 41.336 164.383 38.672 164.383 34.04C164.383 29.936 162.391 27.224 159.079 27.224C157.759 27.224 156.415 27.872 155.359 28.832L155.455 26.672V21.848H151.927V41H154.687L154.999 39.584H155.095C156.175 40.712 157.471 41.336 158.671 41.336ZM157.879 38.432C157.159 38.432 156.295 38.168 155.455 37.424V31.52C156.367 30.584 157.183 30.128 158.095 30.128C159.943 30.128 160.759 31.544 160.759 34.112C160.759 37.04 159.511 38.432 157.879 38.432Z" fill="#003545"/>
</svg>
