<svg width="103" height="60" viewBox="0 0 103 60" fill="none" xmlns="http://www.w3.org/2000/svg">
<g clip-path="url(#clip0_28_118)">
<path d="M58.865 27.3251L32.6675 1.13014C31.1575 -0.377363 28.7125 -0.377363 27.1975 1.13014L21.77 6.56764L28.67 13.4676C30.2825 12.9301 32.1175 13.2926 33.3925 14.5701C34.6825 15.8576 35.0375 17.7151 34.4875 19.3201L41.1325 25.9701C42.745 25.4126 44.6 25.7751 45.8825 27.0576C47.685 28.8576 47.685 31.7676 45.8825 33.5676C44.085 35.3651 41.18 35.3651 39.3825 33.5676C38.035 32.2151 37.6975 30.2251 38.3725 28.5776L32.15 22.3876V38.7001C32.59 38.9151 33.005 39.2076 33.37 39.5701C35.1525 41.3726 35.1525 44.2776 33.37 46.0701C31.5725 47.8726 28.6475 47.8726 26.8475 46.0701C25.05 44.2726 25.05 41.3726 26.8475 39.5751C27.3025 39.1251 27.815 38.7851 28.36 38.5601V22.0876C27.8175 21.8601 27.3 21.5326 26.86 21.0851C25.4975 19.7226 25.17 17.7301 25.87 16.0626L19.09 9.25014L1.125 27.2026C-0.375 28.7151 -0.375 31.1626 1.125 32.6751L27.325 58.8676C28.835 60.3776 31.28 60.3776 32.79 58.8676L58.865 32.7926C60.3775 31.2851 60.3775 28.8376 58.865 27.3251Z" fill="#F05032"/>
</g>
<path d="M77.816 41.336C80.288 41.336 82.376 40.376 83.576 39.2V31.184H77.264V34.088H80.408V37.592C79.904 38.024 79.04 38.264 78.2 38.264C74.696 38.264 72.92 35.936 72.92 32.072C72.92 28.256 74.984 25.952 77.936 25.952C79.544 25.952 80.552 26.6 81.44 27.44L83.312 25.184C82.16 24.008 80.384 22.904 77.816 22.904C73.088 22.904 69.296 26.336 69.296 32.192C69.296 38.12 72.992 41.336 77.816 41.336ZM87.0991 41H90.6271V27.56H87.0991V41ZM88.8751 25.4C90.0751 25.4 90.9151 24.632 90.9151 23.456C90.9151 22.304 90.0751 21.536 88.8751 21.536C87.6511 21.536 86.8111 22.304 86.8111 23.456C86.8111 24.632 87.6511 25.4 88.8751 25.4ZM99.3082 41.336C100.484 41.336 101.42 41.072 102.14 40.832L101.564 38.264C101.204 38.408 100.676 38.552 100.244 38.552C99.0442 38.552 98.4202 37.832 98.4202 36.296V30.344H101.732V27.56H98.4202V23.936H95.4922L95.0842 27.56L92.9962 27.728V30.344H94.8922V36.296C94.8922 39.296 96.1162 41.336 99.3082 41.336Z" fill="#F05032"/>
<defs>
<clipPath id="clip0_28_118">
<rect width="60" height="60" fill="white"/>
</clipPath>
</defs>
</svg>
