<svg width="183" height="60" viewBox="0 0 183 60" fill="none" xmlns="http://www.w3.org/2000/svg">
<path d="M30.066 0L3.98676 14.9805V45.0195L30.066 60L56.0133 45.0195V14.9805L30.066 0ZM29.9975 8.711L48.5718 19.2775V40.7228L29.9975 51.2892L11.6285 40.835L11.4283 19.2775L29.9975 8.711ZM30.1198 10.1855C27.6785 11.5922 25.24 13.004 22.8005 14.414V15.0487L29.319 18.8573V20.0632C29.6578 19.868 29.973 19.6855 30.3248 19.4823L30.9645 19.8582V19.0185C33.1755 17.7515 35.4828 16.4155 37.3855 15.3173C37.3943 15.0093 37.3923 14.6838 37.3953 14.3848C34.9695 12.9858 32.5445 11.5855 30.1198 10.1855ZM20.8375 15.3468C18.4113 16.7292 16.0095 18.1537 13.606 19.5753V28.081C16.0185 29.4692 18.4278 30.8627 20.8375 32.2557L21.8433 31.6747V24.3847C23.9835 23.1485 26.2238 21.8532 28.0688 20.786V19.5753L20.8375 15.3468ZM39.4458 15.5665L32.2143 19.7413V20.586L38.806 24.4385V32.1045C39.0195 32.228 39.2323 32.3522 39.4458 32.4755L46.6773 28.3008V19.795L39.4458 15.5665ZM30.3248 20.9278C27.9158 22.3238 25.5045 23.7155 23.0933 25.1075V33.667C25.5058 35.0552 27.915 36.4487 30.3248 37.8418L37.5563 33.662V25.1562L30.3248 20.9278ZM14.8315 30.2345C14.4248 30.475 14.0128 30.7067 13.606 30.9475V39.4532C16.0168 40.846 18.427 42.2395 20.8375 43.633L21.8433 43.052V35.757C22.2495 35.5223 22.6148 35.3102 23.025 35.0735C22.6178 34.8372 22.2633 34.6327 21.8433 34.39V33.12L20.8375 33.7013C18.7748 32.5085 16.612 31.2612 14.8315 30.2345ZM45.4518 30.4492L39.446 33.921C39.226 33.7938 39.028 33.678 38.8063 33.55V34.385L37.5758 35.098L38.8063 35.8158V43.4818C39.0198 43.6053 39.2325 43.7295 39.446 43.8527L46.6775 39.673V31.1672L45.4518 30.4492ZM24.2798 35.796C23.8845 36.0243 23.4885 36.2513 23.0933 36.4795V45.039C25.5025 46.4328 27.9138 47.823 30.3248 49.2137L37.5563 45.039V36.5332L36.3308 35.8155L30.325 39.2873C28.2483 38.0863 26.0718 36.83 24.2798 35.796Z" fill="#52B0E7"/>
<path d="M75.488 40.336C79.592 40.336 82.016 37.864 82.016 34.96C82.016 32.392 80.6 31.024 78.44 30.136L76.112 29.152C74.6 28.552 73.352 28.096 73.352 26.824C73.352 25.648 74.336 24.952 75.896 24.952C77.36 24.952 78.536 25.48 79.664 26.416L81.464 24.184C80.024 22.72 77.96 21.904 75.896 21.904C72.296 21.904 69.752 24.136 69.752 27.04C69.752 29.632 71.552 31.072 73.352 31.816L75.728 32.824C77.312 33.496 78.392 33.904 78.392 35.224C78.392 36.472 77.408 37.264 75.56 37.264C74 37.264 72.32 36.472 71.048 35.296L69.008 37.744C70.736 39.4 73.112 40.336 75.488 40.336ZM90.7286 40.336C92.3846 40.336 94.0886 39.76 95.4086 38.848L94.2086 36.688C93.2486 37.288 92.2886 37.624 91.1846 37.624C89.1926 37.624 87.7526 36.472 87.4646 34.264H95.7446C95.8406 33.952 95.9126 33.304 95.9126 32.632C95.9126 28.936 93.9926 26.224 90.2966 26.224C87.1046 26.224 84.0326 28.936 84.0326 33.28C84.0326 37.72 86.9606 40.336 90.7286 40.336ZM87.4166 31.912C87.6806 29.968 88.9286 28.96 90.3446 28.96C92.0726 28.96 92.8886 30.112 92.8886 31.912H87.4166ZM106.978 45.16H110.482V26.56H107.722L107.434 27.88H107.338C106.258 26.752 105.178 26.224 103.69 26.224C100.786 26.224 98.0499 28.912 98.0499 33.28C98.0499 37.696 100.21 40.336 103.546 40.336C104.866 40.336 106.186 39.664 107.098 38.728L106.978 40.888V45.16ZM104.458 37.432C102.682 37.432 101.674 36.04 101.674 33.256C101.674 30.568 102.946 29.128 104.458 29.128C105.298 29.128 106.162 29.392 106.978 30.136V36.04C106.186 37.048 105.394 37.432 104.458 37.432ZM118.271 40.336C120.095 40.336 121.391 39.448 122.543 38.08H122.639L122.903 40H125.783V26.56H122.255V35.632C121.343 36.832 120.623 37.312 119.519 37.312C118.223 37.312 117.647 36.568 117.647 34.504V26.56H114.119V34.96C114.119 38.32 115.367 40.336 118.271 40.336ZM135.4 40.336C137.056 40.336 138.76 39.76 140.08 38.848L138.88 36.688C137.92 37.288 136.96 37.624 135.856 37.624C133.864 37.624 132.424 36.472 132.136 34.264H140.416C140.512 33.952 140.584 33.304 140.584 32.632C140.584 28.936 138.664 26.224 134.968 26.224C131.776 26.224 128.704 28.936 128.704 33.28C128.704 37.72 131.632 40.336 135.4 40.336ZM132.088 31.912C132.352 29.968 133.6 28.96 135.016 28.96C136.744 28.96 137.56 30.112 137.56 31.912H132.088ZM146.802 40.336C147.642 40.336 148.218 40.192 148.626 40.024L148.194 37.408C147.954 37.456 147.858 37.456 147.714 37.456C147.378 37.456 147.018 37.192 147.018 36.376V20.848H143.49V36.232C143.49 38.728 144.354 40.336 146.802 40.336ZM151.06 40H154.588V26.56H151.06V40ZM152.836 24.4C154.036 24.4 154.876 23.632 154.876 22.456C154.876 21.304 154.036 20.536 152.836 20.536C151.612 20.536 150.772 21.304 150.772 22.456C150.772 23.632 151.612 24.4 152.836 24.4ZM157.437 40H168.069V37.216H161.829L167.853 28.456V26.56H158.109V29.344H163.461L157.437 38.104V40ZM176.182 40.336C177.838 40.336 179.542 39.76 180.862 38.848L179.662 36.688C178.702 37.288 177.742 37.624 176.638 37.624C174.646 37.624 173.206 36.472 172.918 34.264H181.198C181.294 33.952 181.366 33.304 181.366 32.632C181.366 28.936 179.446 26.224 175.75 26.224C172.558 26.224 169.486 28.936 169.486 33.28C169.486 37.72 172.414 40.336 176.182 40.336ZM172.87 31.912C173.134 29.968 174.382 28.96 175.798 28.96C177.526 28.96 178.342 30.112 178.342 31.912H172.87Z" fill="#52B0E7"/>
</svg>
