<svg width="60" height="60" viewBox="0 0 60 60" fill="none" xmlns="http://www.w3.org/2000/svg">
<path d="M51.4918 18.7051L60 41.2951H53.7255L52.2715 37.2491H44.1585L45.8918 32.8661H50.8965L48.5215 26.2168L51.4918 18.7051ZM31.2142 18.7051L35.6448 33.3033L41.875 18.7051H47.9135L38.8053 41.2951H32.847L28.7482 28.2036L24.4493 41.2951H18.5068L15.4243 36.0048L18.4603 26.6511L21.8153 33.3033L26.5725 18.7051H31.214H31.2142ZM9.351 18.7051C12.0098 18.7051 14.0292 19.4688 15.4095 20.9966C15.6698 21.2825 15.9045 21.5907 16.111 21.9176L13.4228 30.1996L12.461 33.1631C11.581 33.4146 10.5778 33.5403 9.451 33.5403H5.732V41.2953H0V18.7051H9.351ZM7.897 23.0881H5.732V29.1571H7.88125C9.2755 29.1571 10.2327 28.8586 10.7525 28.2616C11.2265 27.7241 11.4637 26.9971 11.4637 26.0806C11.4637 25.1706 11.194 24.4446 10.655 23.9021C10.1158 23.3596 9.1965 23.0881 7.897 23.0881Z" fill="#5A0FC8"/>
</svg>
