<svg width="60" height="60" viewBox="0 0 60 60" fill="none" xmlns="http://www.w3.org/2000/svg">
<g clip-path="url(#clip0_28_85)">
<path d="M55.985 14.9998C55.5675 14.2748 54.99 13.6423 54.355 13.2748L32.315 0.549785C31.0425 -0.185215 28.965 -0.185215 27.695 0.549785L5.65003 13.2748C4.38003 14.0073 3.34253 15.8073 3.34253 17.2748V42.7248C3.34253 43.4598 3.60253 44.2748 4.02003 44.9998C4.43753 45.7248 5.01503 46.3573 5.65003 46.7248L27.69 59.4498C28.96 60.1823 31.04 60.1823 32.31 59.4498L54.35 46.7248C54.985 46.3573 55.5625 45.7248 55.98 44.9998C56.3975 44.2748 56.655 43.4598 56.655 42.7248V17.2748C56.6625 16.5398 56.405 15.7248 55.985 14.9998ZM30 47.7748C20.2 47.7748 12.2275 39.7998 12.2275 29.9998C12.2275 20.1998 20.2025 12.2248 30.0025 12.2248C33.1204 12.2307 36.1823 13.054 38.8827 14.6126C41.5831 16.1712 43.8277 18.4105 45.3925 21.1073L37.7025 25.5573C36.9207 24.2066 35.7981 23.0848 34.4469 22.3039C33.0956 21.523 31.5632 21.1104 30.0025 21.1073C27.6447 21.1093 25.384 22.0468 23.7168 23.714C22.0495 25.3813 21.112 27.642 21.11 29.9998C21.1133 32.3563 22.0511 34.6153 23.7177 36.2814C25.3842 37.9475 27.6435 38.8846 30 38.8873C31.56 38.8839 33.0919 38.4718 34.4429 37.6918C35.794 36.9119 36.917 35.7915 37.7 34.4423L45.395 38.8923C43.8294 41.5895 41.5839 43.829 38.8827 45.3876C36.1814 46.9461 33.1187 47.7692 30 47.7748ZM47.775 30.9873H45.8V32.9623H43.825V30.9873H41.85V29.0123H43.825V27.0373H45.8V29.0123H47.775V30.9873ZM55.18 30.9873H53.205V32.9623H51.23V30.9873H49.255V29.0123H51.23V27.0373H53.205V29.0123H55.18V30.9873Z" fill="#00599C"/>
</g>
<defs>
<clipPath id="clip0_28_85">
<rect width="60" height="60" fill="white"/>
</clipPath>
</defs>
</svg>
