<svg width="60" height="60" viewBox="0 0 60 60" fill="none" xmlns="http://www.w3.org/2000/svg">
<path d="M30 0.742676C13.425 0.742676 0 14.1752 0 30.7427C0 44.0002 8.595 55.2427 20.5125 59.2052C22.0125 59.4877 22.5625 58.5602 22.5625 57.7627C22.5625 57.0502 22.5375 55.1627 22.525 52.6627C14.18 54.4727 12.42 48.6377 12.42 48.6377C11.055 45.1752 9.0825 44.2502 9.0825 44.2502C6.365 42.3902 9.2925 42.4277 9.2925 42.4277C12.305 42.6377 13.8875 45.5177 13.8875 45.5177C16.5625 50.1052 20.91 48.7802 22.625 48.0127C22.895 46.0727 23.6675 44.7502 24.525 44.0002C17.8625 43.2502 10.86 40.6702 10.86 29.1752C10.86 25.9002 12.0225 23.2252 13.9475 21.1252C13.61 20.3677 12.5975 17.3177 14.21 13.1852C14.21 13.1852 16.7225 12.3802 22.46 16.2602C24.86 15.5927 27.41 15.2627 29.96 15.2477C32.51 15.2627 35.06 15.5927 37.46 16.2602C43.16 12.3802 45.6725 13.1852 45.6725 13.1852C47.285 17.3177 46.2725 20.3677 45.9725 21.1252C47.885 23.2252 49.0475 25.9002 49.0475 29.1752C49.0475 40.7002 42.035 43.2377 35.36 43.9752C36.41 44.8752 37.385 46.7152 37.385 49.5252C37.385 53.5402 37.3475 56.7652 37.3475 57.7402C37.3475 58.5277 37.8725 59.4652 39.41 59.1652C51.4125 55.2302 60 43.9802 60 30.7427C60 14.1752 46.5675 0.742676 30 0.742676Z" fill="black"/>
</svg>
