<svg width="159" height="60" viewBox="0 0 159 60" fill="none" xmlns="http://www.w3.org/2000/svg">
<path d="M75.752 41.336C77.408 41.336 79.112 40.76 80.432 39.848L79.232 37.688C78.272 38.288 77.312 38.624 76.208 38.624C74.216 38.624 72.776 37.472 72.488 35.264H80.768C80.864 34.952 80.936 34.304 80.936 33.632C80.936 29.936 79.016 27.224 75.32 27.224C72.128 27.224 69.056 29.936 69.056 34.28C69.056 38.72 71.984 41.336 75.752 41.336ZM72.44 32.912C72.704 30.968 73.952 29.96 75.368 29.96C77.096 29.96 77.912 31.112 77.912 32.912H72.44ZM81.9543 41H85.6023L86.8503 38.528C87.2343 37.736 87.5943 36.944 87.9783 36.176H88.0983C88.5303 36.944 88.9623 37.76 89.3943 38.528L90.8823 41H94.6743L90.4743 34.4L94.4103 27.56H90.7623L89.6343 29.936C89.3223 30.704 88.9623 31.472 88.6503 32.216H88.5543C88.1463 31.472 87.7383 30.704 87.3543 29.936L86.0103 27.56H82.2183L86.1543 33.992L81.9543 41ZM96.9429 46.16H100.471V42.08L100.351 39.872C101.383 40.808 102.511 41.336 103.687 41.336C106.639 41.336 109.399 38.672 109.399 34.064C109.399 29.936 107.431 27.224 104.119 27.224C102.679 27.224 101.287 27.992 100.159 28.952H100.087L99.8229 27.56H96.9429V46.16ZM102.895 38.432C102.175 38.432 101.311 38.168 100.471 37.424V31.52C101.383 30.584 102.199 30.128 103.111 30.128C104.959 30.128 105.775 31.544 105.775 34.112C105.775 37.04 104.527 38.432 102.895 38.432ZM112.388 41H115.916V32.984C116.66 31.04 117.932 30.344 118.988 30.344C119.54 30.344 119.924 30.416 120.404 30.56L121.004 27.512C120.596 27.344 120.164 27.224 119.42 27.224C118.028 27.224 116.588 28.184 115.604 29.936H115.532L115.268 27.56H112.388V41ZM128.416 41.336C130.072 41.336 131.776 40.76 133.096 39.848L131.896 37.688C130.936 38.288 129.976 38.624 128.872 38.624C126.88 38.624 125.44 37.472 125.152 35.264H133.432C133.528 34.952 133.6 34.304 133.6 33.632C133.6 29.936 131.68 27.224 127.984 27.224C124.792 27.224 121.72 29.936 121.72 34.28C121.72 38.72 124.648 41.336 128.416 41.336ZM125.104 32.912C125.368 30.968 126.616 29.96 128.032 29.96C129.76 29.96 130.576 31.112 130.576 32.912H125.104ZM140.345 41.336C143.849 41.336 145.697 39.44 145.697 37.088C145.697 34.592 143.729 33.704 141.953 33.032C140.537 32.504 139.289 32.144 139.289 31.16C139.289 30.392 139.865 29.864 141.089 29.864C142.073 29.864 143.009 30.32 143.969 31.016L145.553 28.88C144.449 28.04 142.937 27.224 140.993 27.224C137.921 27.224 135.977 28.928 135.977 31.328C135.977 33.584 137.873 34.616 139.577 35.264C140.993 35.816 142.385 36.272 142.385 37.28C142.385 38.12 141.785 38.696 140.441 38.696C139.193 38.696 138.041 38.168 136.841 37.232L135.233 39.44C136.577 40.544 138.545 41.336 140.345 41.336ZM152.228 41.336C155.732 41.336 157.58 39.44 157.58 37.088C157.58 34.592 155.612 33.704 153.836 33.032C152.42 32.504 151.172 32.144 151.172 31.16C151.172 30.392 151.748 29.864 152.972 29.864C153.956 29.864 154.892 30.32 155.852 31.016L157.436 28.88C156.332 28.04 154.82 27.224 152.876 27.224C149.804 27.224 147.86 28.928 147.86 31.328C147.86 33.584 149.756 34.616 151.46 35.264C152.876 35.816 154.268 36.272 154.268 37.28C154.268 38.12 153.668 38.696 152.324 38.696C151.076 38.696 149.924 38.168 148.724 37.232L147.116 39.44C148.46 40.544 150.428 41.336 152.228 41.336Z" fill="black"/>
<g clip-path="url(#clip0_28_114)">
<path d="M60 46.4698C59.1268 46.8001 58.1628 46.7994 57.2901 46.4678C56.4174 46.1362 55.6961 45.4966 55.2625 44.6698L46.6375 32.7423L45.3875 31.0748L35.38 44.6848C34.9725 45.4769 34.2904 46.0935 33.4613 46.4193C32.6322 46.745 31.7128 46.7577 30.875 46.4548L43.77 29.1548L31.775 13.5273C32.6375 13.2165 33.5808 13.2124 34.4459 13.5156C35.3111 13.8189 36.0453 14.411 36.525 15.1923L45.465 27.2673L54.455 15.2423C54.8657 14.4643 55.548 13.8643 56.3721 13.5564C57.1963 13.2485 58.1048 13.2542 58.925 13.5723L54.27 19.7498L47.965 27.9573C47.7899 28.1135 47.6498 28.3049 47.5539 28.5191C47.458 28.7332 47.4084 28.9652 47.4084 29.1998C47.4084 29.4345 47.458 29.6664 47.5539 29.8806C47.6498 30.0947 47.7899 30.2861 47.965 30.4423L59.975 46.4723L60 46.4698ZM0.00502999 28.9398L1.05503 23.7523C3.94003 13.4948 15.7 9.22731 23.79 15.5773C28.5275 19.2998 29.71 24.5698 29.4775 30.5098H2.79003C2.35753 41.1173 10.0125 47.5223 19.8 44.2498C21.3867 43.6787 22.8069 42.7229 23.9334 41.4681C25.06 40.2133 25.8576 38.6986 26.255 37.0598C26.7725 35.3948 27.625 35.1098 29.19 35.5898C28.9292 37.6208 28.2113 39.5661 27.0902 41.2796C25.9691 42.9931 24.4741 44.43 22.7175 45.4823C19.8161 47.0694 16.4871 47.6984 13.2066 47.2795C9.92608 46.8606 6.86203 45.4151 4.45253 43.1498C2.0701 40.4683 0.63022 37.081 0.35253 33.5048C0.35253 32.9173 0.15253 32.3673 0.01753 31.8398C0.00536007 30.874 -0.000473393 29.9082 2.99907e-05 28.9423L0.00502999 28.9398ZM2.82253 28.2248H26.9575C26.8075 20.5348 21.955 15.0798 15.4825 15.0298C8.27753 14.9298 3.12253 20.2648 2.80503 28.1898L2.82253 28.2248Z" fill="black"/>
</g>
<defs>
<clipPath id="clip0_28_114">
<rect width="60" height="60" fill="white"/>
</clipPath>
</defs>
</svg>
