<svg width="135" height="60" viewBox="0 0 135 60" fill="none" xmlns="http://www.w3.org/2000/svg">
<path d="M35.575 30.0102C35.575 31.4923 34.9864 32.9137 33.9386 33.962C32.8908 35.0103 31.4696 35.5995 29.9875 35.6002C28.5049 35.6002 27.0831 35.0112 26.0348 33.9629C24.9864 32.9146 24.3975 31.4927 24.3975 30.0102C24.3975 28.528 24.9861 27.1066 26.0339 26.0583C27.0817 25.0101 28.5029 24.4208 29.985 24.4202C31.4676 24.4202 32.8894 25.0091 33.9377 26.0574C34.9861 27.1058 35.575 28.5276 35.575 30.0102ZM42.195 3.28516C38.83 3.28516 34.4275 5.68516 29.975 9.84016C25.525 5.70766 21.12 3.33516 17.7575 3.33516C16.7325 3.33516 15.8 3.56766 14.9925 4.03016C11.555 6.01266 10.785 12.1902 12.56 19.9427C4.95 22.2927 0 26.0502 0 30.0102C0 33.9852 4.975 37.7527 12.6075 40.0852C10.8475 47.8677 11.6325 54.0552 15.0775 56.0352C15.8775 56.5027 16.8025 56.7227 17.8325 56.7227C21.195 56.7227 25.6 54.3227 30.0525 50.1627C34.5025 54.2977 38.9075 56.6702 42.27 56.6702C43.295 56.6702 44.2275 56.4452 45.035 55.9827C48.47 54.0027 49.2425 47.8252 47.4675 40.0702C55.05 37.7402 60 33.9752 60 30.0102C60 26.0352 55.025 22.2677 47.3925 19.9302C49.1525 12.1552 48.3675 5.96266 44.9225 3.98016C44.1275 3.52016 43.2025 3.28766 42.1925 3.28516H42.195ZM42.1825 6.01016V6.02516C42.745 6.02516 43.1975 6.13516 43.5775 6.34266C45.2425 7.29766 45.965 10.9302 45.4025 15.6027C45.2675 16.7527 45.0475 17.9652 44.7775 19.2027C42.3775 18.6127 39.7625 18.1602 37.01 17.8677C35.36 15.6052 33.6475 13.5502 31.9225 11.7502C35.9025 8.05016 39.64 6.02016 42.185 6.01266L42.1825 6.01016ZM17.7575 6.06016C20.2875 6.06016 24.0425 8.08016 28.0325 11.7602C26.3175 13.5602 24.6075 15.6027 22.9825 17.8652C20.215 18.1577 17.5975 18.6102 15.2 19.2102C14.92 17.9852 14.7125 16.8002 14.565 15.6602C13.99 10.9902 14.7 7.36016 16.35 6.39266C16.825 6.16766 17.35 6.07516 17.7575 6.06266V6.06016ZM29.9625 13.6852C31.1 14.8552 32.2375 16.1652 33.3625 17.5952C32.2625 17.5452 31.1375 17.5102 30 17.5102C28.85 17.5102 27.7125 17.5352 26.6 17.5952C27.7 16.1652 28.8375 14.8552 29.9625 13.6827V13.6852ZM30 20.2502C31.85 20.2502 33.6925 20.3352 35.505 20.4827C36.52 21.9377 37.51 23.4902 38.4625 25.1327C39.3925 26.7327 40.2375 28.3577 41.0075 29.9977C40.2375 31.6352 39.3925 33.2727 38.475 34.8727C37.525 36.5227 36.5425 38.0927 35.525 39.5477C33.705 39.7052 31.86 39.7927 30 39.7927C28.15 39.7927 26.3075 39.7052 24.495 39.5602C23.48 38.1052 22.49 36.5502 21.5375 34.9102C20.6075 33.3102 19.7625 31.6852 18.9925 30.0452C19.75 28.4027 20.6075 26.7627 21.525 25.1602C22.475 23.5102 23.4575 21.9452 24.475 20.4902C26.295 20.3302 28.14 20.2452 30 20.2452V20.2502ZM20.9125 20.8852C20.3125 21.8277 19.7125 22.7927 19.1525 23.7852C18.59 24.7602 18.065 25.7402 17.565 26.7202C16.9025 25.0802 16.34 23.4452 15.875 21.8527C17.475 21.4777 19.1625 21.1452 20.9125 20.8877V20.8852ZM39.0625 20.8852C40.8 21.1427 42.475 21.4602 44.0775 21.8527C43.6275 23.4327 43.065 25.0577 42.4275 26.6852C41.9275 25.7102 41.4025 24.7277 40.8275 23.7502C40.265 22.7702 39.665 21.8152 39.065 20.8852H39.0625ZM46.72 22.5727C47.93 22.9477 49.08 23.3652 50.1575 23.8177C54.4875 25.6677 57.2875 28.0877 57.2875 30.0077C57.275 31.9277 54.475 34.3577 50.145 36.1952C49.095 36.6452 47.945 37.0502 46.7575 37.4277C46.0575 35.0327 45.1425 32.5377 44.0075 29.9777C45.1325 27.4352 46.0325 24.9527 46.72 22.5677V22.5727ZM13.2325 22.5827C13.9275 24.9827 14.845 27.4752 15.9825 30.0327C14.8575 32.5752 13.9525 35.0577 13.2675 37.4427C12.0575 37.0677 10.9075 36.6477 9.8425 36.1927C5.5125 34.3502 2.7125 31.9277 2.7125 30.0077C2.7125 28.0877 5.5125 25.6527 9.8425 23.8177C10.8925 23.3677 12.0425 22.9627 13.2325 22.5827ZM42.4275 33.2827C43.09 34.9252 43.6525 36.5627 44.1175 38.1527C42.5175 38.5452 40.8275 38.8777 39.0775 39.1277C39.6775 38.1902 40.2775 37.2227 40.84 36.2327C41.4025 35.2577 41.9275 34.2627 42.43 33.2827H42.4275ZM17.565 33.3327C18.065 34.3127 18.59 35.2902 19.165 36.2702C19.74 37.2452 20.3275 38.2002 20.9275 39.1277C19.19 38.8727 17.515 38.5527 15.9125 38.1627C16.3625 36.5877 16.9275 34.9577 17.5625 33.3302L17.565 33.3327ZM44.8 40.8002C45.08 42.0327 45.3 43.2202 45.435 44.3577C46.01 49.0277 45.3 52.6577 43.65 53.6277C43.2825 53.8527 42.805 53.9477 42.2425 53.9477C39.7125 53.9477 35.9575 51.9302 31.9675 48.2477C33.6825 46.4477 35.3925 44.4077 37.0175 42.1477C39.785 41.8527 42.4025 41.3977 44.8 40.7977V40.8002ZM15.225 40.8252C17.625 41.4102 20.24 41.8627 22.9925 42.1552C24.6425 44.4177 26.355 46.4727 28.08 48.2702C24.0925 51.9777 20.35 54.0077 17.805 54.0077C17.255 53.9952 16.79 53.8827 16.4225 53.6777C14.7575 52.7277 14.035 49.0927 14.5975 44.4202C14.7325 43.2702 14.9525 42.0602 15.2225 40.8252H15.225ZM26.625 42.4252C27.725 42.4752 28.85 42.5102 29.9875 42.5102C31.1375 42.5102 32.275 42.4852 33.3875 42.4252C32.2875 43.8552 31.15 45.1627 30.025 46.3377C28.8875 45.1627 27.75 43.8552 26.625 42.4252Z" fill="#61DAFB"/>
<path d="M70.184 41H73.736V34.28H76.208L79.856 41H83.816L79.664 33.728C81.704 32.936 83.048 31.28 83.048 28.616C83.048 24.536 80.096 23.216 76.376 23.216H70.184V41ZM73.736 31.472V26.048H76.04C78.32 26.048 79.592 26.696 79.592 28.616C79.592 30.512 78.32 31.472 76.04 31.472H73.736ZM91.8301 41.336C93.4861 41.336 95.1901 40.76 96.5101 39.848L95.3101 37.688C94.3501 38.288 93.3901 38.624 92.2861 38.624C90.2941 38.624 88.8541 37.472 88.5661 35.264H96.8461C96.9421 34.952 97.0141 34.304 97.0141 33.632C97.0141 29.936 95.0941 27.224 91.3981 27.224C88.2061 27.224 85.1341 29.936 85.1341 34.28C85.1341 38.72 88.0621 41.336 91.8301 41.336ZM88.5181 32.912C88.7821 30.968 90.0301 29.96 91.4461 29.96C93.1741 29.96 93.9901 31.112 93.9901 32.912H88.5181ZM102.903 41.336C104.439 41.336 105.783 40.568 106.959 39.56H107.055L107.295 41H110.175V33.152C110.175 29.264 108.423 27.224 105.015 27.224C102.903 27.224 100.983 28.016 99.3993 29L100.671 31.328C101.919 30.608 103.119 30.056 104.367 30.056C106.023 30.056 106.599 31.064 106.671 32.384C101.247 32.96 98.9193 34.472 98.9193 37.352C98.9193 39.632 100.503 41.336 102.903 41.336ZM104.055 38.576C103.023 38.576 102.279 38.12 102.279 37.064C102.279 35.864 103.383 34.952 106.671 34.544V37.256C105.807 38.096 105.063 38.576 104.055 38.576ZM119.483 41.336C120.971 41.336 122.603 40.832 123.899 39.704L122.483 37.376C121.739 38 120.827 38.456 119.867 38.456C117.947 38.456 116.531 36.824 116.531 34.28C116.531 31.76 117.923 30.104 119.987 30.104C120.731 30.104 121.355 30.416 122.027 30.992L123.707 28.712C122.723 27.872 121.451 27.224 119.795 27.224C116.147 27.224 112.931 29.816 112.931 34.28C112.931 38.744 115.763 41.336 119.483 41.336ZM131.066 41.336C132.242 41.336 133.178 41.072 133.898 40.832L133.322 38.264C132.962 38.408 132.434 38.552 132.002 38.552C130.802 38.552 130.178 37.832 130.178 36.296V30.344H133.49V27.56H130.178V23.936H127.25L126.842 27.56L124.754 27.728V30.344H126.65V36.296C126.65 39.296 127.874 41.336 131.066 41.336Z" fill="#61DAFB"/>
</svg>
