<svg width="60" height="60" viewBox="0 0 60 60" fill="none" xmlns="http://www.w3.org/2000/svg">
<path d="M30 29.9375C27.25 29.9375 25 29.0625 23.25 27.3125C21.5 25.5625 20.625 23.3125 20.625 20.5625C20.625 17.8125 21.5 15.5625 23.25 13.8125C25 12.0625 27.25 11.1875 30 11.1875C32.75 11.1875 35 12.0625 36.75 13.8125C38.5 15.5625 39.375 17.8125 39.375 20.5625C39.375 23.3125 38.5 25.5625 36.75 27.3125C35 29.0625 32.75 29.9375 30 29.9375ZM10 50V44.125C10 42.5417 10.3958 41.1875 11.1875 40.0625C11.9792 38.9375 13 38.0833 14.25 37.5C17.0417 36.25 19.7188 35.3125 22.2813 34.6875C24.8438 34.0625 27.4167 33.75 30 33.75C32.5833 33.75 35.1458 34.0729 37.6875 34.7188C40.2292 35.3646 42.8958 36.2917 45.6875 37.5C46.9792 38.0833 48.0208 38.9375 48.8125 40.0625C49.6042 41.1875 50 42.5417 50 44.125V50H10Z" fill="black"/>
</svg>
