<svg width="60" height="89" viewBox="0 0 60 89" fill="none" xmlns="http://www.w3.org/2000/svg">
<path d="M3.75 29H56.25L51.475 82.9075L29.9425 89L8.5325 82.905L3.75 29ZM21.3275 53.375L20.7475 46.58L45.895 46.5875L46.47 40.0325L13.53 40.025L15.275 60.05H38.09L37.275 68.615L30 70.625L22.6125 68.6L22.1425 63.325H15.62L16.445 73.7525L30 77.3775L43.4475 73.77L45.3075 53.3775H21.3275V53.375Z" fill="#E34F26"/>
<path d="M3.82 23H6.78V16.6H12.38V23H15.32V8.18H12.38V14.02H6.78V8.18H3.82V23ZM21.8967 23H24.8567V10.66H29.0567V8.18H17.7367V10.66H21.8967V23ZM31.4567 23H34.1167V16.82C34.1167 15.42 33.8767 13.36 33.7367 11.96H33.8167L34.9967 15.44L37.2967 21.66H38.9967L41.2767 15.44L42.4767 11.96H42.5767C42.4167 13.36 42.1967 15.42 42.1967 16.82V23H44.8967V8.18H41.6167L39.1567 15.12C38.8367 16.04 38.5767 17.02 38.2567 17.96H38.1567C37.8567 17.02 37.5767 16.04 37.2567 15.12L34.7367 8.18H31.4567V23ZM48.527 23H57.507V20.52H51.487V8.18H48.527V23Z" fill="black"/>
</svg>
