<svg width="92" height="21" viewBox="0 0 92 21" fill="none" xmlns="http://www.w3.org/2000/svg">
<path d="M0.984 20H11.616V17.216H5.376L11.4 8.456V6.56H1.656V9.344H7.008L0.984 18.104V20ZM17.8806 20.336C19.7046 20.336 21.0006 19.448 22.1526 18.08H22.2486L22.5126 20H25.3926V6.56H21.8646V15.632C20.9526 16.832 20.2326 17.312 19.1286 17.312C17.8326 17.312 17.2566 16.568 17.2566 14.504V6.56H13.7286V14.96C13.7286 18.32 14.9766 20.336 17.8806 20.336ZM32.9938 20.336C36.4978 20.336 38.3458 18.44 38.3458 16.088C38.3458 13.592 36.3778 12.704 34.6018 12.032C33.1858 11.504 31.9378 11.144 31.9378 10.16C31.9378 9.392 32.5138 8.864 33.7378 8.864C34.7218 8.864 35.6578 9.32 36.6178 10.016L38.2018 7.88C37.0978 7.04 35.5858 6.224 33.6418 6.224C30.5698 6.224 28.6258 7.928 28.6258 10.328C28.6258 12.584 30.5218 13.616 32.2258 14.264C33.6418 14.816 35.0338 15.272 35.0338 16.28C35.0338 17.12 34.4338 17.696 33.0898 17.696C31.8418 17.696 30.6898 17.168 29.4898 16.232L27.8818 18.44C29.2258 19.544 31.1938 20.336 32.9938 20.336ZM45.3941 20.336C46.5701 20.336 47.5061 20.072 48.2261 19.832L47.6501 17.264C47.2901 17.408 46.7621 17.552 46.3301 17.552C45.1301 17.552 44.5061 16.832 44.5061 15.296V9.344H47.8181V6.56H44.5061V2.936H41.5781L41.1701 6.56L39.0821 6.728V9.344H40.9781V15.296C40.9781 18.296 42.2021 20.336 45.3941 20.336ZM53.3018 20.336C54.8378 20.336 56.1818 19.568 57.3578 18.56H57.4538L57.6938 20H60.5738V12.152C60.5738 8.264 58.8218 6.224 55.4138 6.224C53.3018 6.224 51.3818 7.016 49.7978 8L51.0698 10.328C52.3178 9.608 53.5178 9.056 54.7658 9.056C56.4218 9.056 56.9978 10.064 57.0698 11.384C51.6458 11.96 49.3178 13.472 49.3178 16.352C49.3178 18.632 50.9018 20.336 53.3018 20.336ZM54.4538 17.576C53.4218 17.576 52.6778 17.12 52.6778 16.064C52.6778 14.864 53.7818 13.952 57.0698 13.544V16.256C56.2058 17.096 55.4618 17.576 54.4538 17.576ZM64.1694 20H67.6974V10.76C68.6814 9.776 69.3774 9.248 70.4814 9.248C71.8014 9.248 72.3774 9.968 72.3774 12.056V20H75.9054V11.624C75.9054 8.24 74.6574 6.224 71.7534 6.224C69.9294 6.224 68.5614 7.184 67.3854 8.336H67.3134L67.0494 6.56H64.1694V20ZM84.2724 20.336C85.6644 20.336 87.0084 19.568 87.9924 18.608H88.0884L88.3524 20H91.2084V0.847999H87.7044V5.576L87.8244 7.688C86.8644 6.8 85.9284 6.224 84.4164 6.224C81.5124 6.224 78.7764 8.912 78.7764 13.28C78.7764 17.696 80.9364 20.336 84.2724 20.336ZM85.1844 17.432C83.4084 17.432 82.4004 16.04 82.4004 13.256C82.4004 10.568 83.6724 9.128 85.1844 9.128C86.0244 9.128 86.8884 9.392 87.7044 10.136V16.04C86.9124 17.048 86.1204 17.432 85.1844 17.432Z" fill="#275AC7"/>
</svg>
