<svg width="60" height="60" viewBox="0 0 60 60" fill="none" xmlns="http://www.w3.org/2000/svg">
<path d="M49.6875 52.5C44.6042 52.5 39.5521 51.25 34.5312 48.75C29.5104 46.25 25 43 21 39C17 35 13.75 30.4896 11.25 25.4688C8.75 20.4479 7.5 15.3958 7.5 10.3125C7.5 9.52083 7.77083 8.85417 8.3125 8.3125C8.85417 7.77083 9.52083 7.5 10.3125 7.5H19.0625C19.6458 7.5 20.1563 7.69792 20.5938 8.09375C21.0312 8.48958 21.3125 9.02083 21.4375 9.6875L23.125 17.5625C23.2083 18.1458 23.1979 18.6771 23.0938 19.1562C22.9896 19.6354 22.7708 20.0417 22.4375 20.375L16.1875 26.6875C18.5208 30.5625 21.1354 33.9375 24.0312 36.8125C26.9271 39.6875 30.2083 42.125 33.875 44.125L39.8125 38C40.2292 37.5417 40.7083 37.2188 41.25 37.0312C41.7917 36.8438 42.3333 36.8125 42.875 36.9375L50.3125 38.5625C50.9375 38.6875 51.4583 39 51.875 39.5C52.2917 40 52.5 40.5833 52.5 41.25V49.6875C52.5 50.4792 52.2292 51.1458 51.6875 51.6875C51.1458 52.2292 50.4792 52.5 49.6875 52.5Z" fill="black"/>
</svg>
