<svg width="156" height="60" viewBox="0 0 156 60" fill="none" xmlns="http://www.w3.org/2000/svg">
<g clip-path="url(#clip0_28_117)">
<path d="M29.995 60.0001C29.1925 60.0001 28.3925 59.7901 27.69 59.3826L20.35 55.0401C19.255 54.4276 19.79 54.2101 20.15 54.0826C21.6125 53.5751 21.9075 53.4576 23.47 52.5726C23.6325 52.4801 23.8475 52.5151 24.015 52.6151L29.655 55.9626C29.86 56.0751 30.1475 56.0751 30.335 55.9626L52.3225 43.2726C52.5275 43.1551 52.6575 42.9201 52.6575 42.6776V17.3026C52.6575 17.0551 52.525 16.8226 52.315 16.6976L30.3375 4.01764C30.135 3.90014 29.865 3.90014 29.66 4.01764L7.68749 16.7001C7.47499 16.8226 7.33999 17.0626 7.33999 17.3026V42.6776C7.33999 42.9201 7.47499 43.1501 7.68749 43.2651L13.71 46.7451C16.9775 48.3801 18.98 46.4551 18.98 44.5201V19.4676C18.98 19.1126 19.265 18.8351 19.62 18.8351H22.4075C22.755 18.8351 23.045 19.1151 23.045 19.4676V44.5201C23.045 48.8826 20.67 51.3826 16.535 51.3826C15.265 51.3826 14.2625 51.3826 11.47 50.0051L5.69999 46.6876C4.27499 45.8651 3.39499 44.3251 3.39499 42.6776V17.3026C3.39499 15.6551 4.27749 14.1151 5.69999 13.2951L27.6875 0.590137C29.08 -0.197363 30.9275 -0.197363 32.3075 0.590137L54.2925 13.2951C55.7175 14.1176 56.6025 15.6551 56.6025 17.3026V42.6776C56.6025 44.3251 55.7175 45.8601 54.2925 46.6876L32.3075 59.3826C31.6075 59.7901 30.81 60.0001 29.995 60.0001ZM47.7475 34.9826C47.7475 30.2326 44.5375 28.9676 37.78 28.0751C30.9525 27.1726 30.2575 26.7051 30.2575 25.1076C30.2575 23.7876 30.845 22.0251 35.9025 22.0251C40.42 22.0251 42.085 22.9976 42.77 26.0426C42.83 26.3301 43.0925 26.5401 43.3875 26.5401H46.24C46.4175 26.5401 46.585 26.4626 46.705 26.3376C46.825 26.2026 46.89 26.0301 46.8725 25.8476C46.43 20.6026 42.945 18.1576 35.9025 18.1576C29.6325 18.1576 25.8925 20.8026 25.8925 25.2401C25.8925 30.0526 29.6125 31.3826 35.63 31.9776C42.83 32.6826 43.3875 33.7351 43.3875 35.1501C43.3875 37.6076 41.415 38.6551 36.7825 38.6551C30.965 38.6551 29.685 37.1951 29.255 34.3001C29.205 33.9901 28.94 33.7626 28.6225 33.7626H25.78C25.4275 33.7626 25.145 34.0426 25.145 34.3951C25.145 38.1001 27.16 42.5151 36.7825 42.5151C43.7525 42.5176 47.7475 39.7751 47.7475 34.9826Z" fill="#339933"/>
</g>
<path d="M69.896 41H73.424V31.76C74.408 30.776 75.104 30.248 76.208 30.248C77.528 30.248 78.104 30.968 78.104 33.056V41H81.632V32.624C81.632 29.24 80.384 27.224 77.48 27.224C75.656 27.224 74.288 28.184 73.112 29.336H73.04L72.776 27.56H69.896V41ZM90.887 41.336C94.247 41.336 97.343 38.744 97.343 34.28C97.343 29.816 94.247 27.224 90.887 27.224C87.527 27.224 84.431 29.816 84.431 34.28C84.431 38.744 87.527 41.336 90.887 41.336ZM90.887 38.456C89.063 38.456 88.031 36.824 88.031 34.28C88.031 31.76 89.063 30.104 90.887 30.104C92.711 30.104 93.743 31.76 93.743 34.28C93.743 36.824 92.711 38.456 90.887 38.456ZM105.022 41.336C106.414 41.336 107.758 40.568 108.742 39.608H108.838L109.102 41H111.958V21.848H108.454V26.576L108.574 28.688C107.614 27.8 106.678 27.224 105.166 27.224C102.262 27.224 99.5264 29.912 99.5264 34.28C99.5264 38.696 101.686 41.336 105.022 41.336ZM105.934 38.432C104.158 38.432 103.15 37.04 103.15 34.256C103.15 31.568 104.422 30.128 105.934 30.128C106.774 30.128 107.638 30.392 108.454 31.136V37.04C107.662 38.048 106.87 38.432 105.934 38.432ZM121.596 41.336C123.252 41.336 124.956 40.76 126.276 39.848L125.076 37.688C124.116 38.288 123.156 38.624 122.052 38.624C120.06 38.624 118.62 37.472 118.332 35.264H126.612C126.708 34.952 126.78 34.304 126.78 33.632C126.78 29.936 124.86 27.224 121.164 27.224C117.972 27.224 114.9 29.936 114.9 34.28C114.9 38.72 117.828 41.336 121.596 41.336ZM118.284 32.912C118.548 30.968 119.796 29.96 121.212 29.96C122.94 29.96 123.756 31.112 123.756 32.912H118.284ZM131.677 41.336C132.949 41.336 133.885 40.328 133.885 39.032C133.885 37.712 132.949 36.728 131.677 36.728C130.429 36.728 129.493 37.712 129.493 39.032C129.493 40.328 130.429 41.336 131.677 41.336ZM137.468 46.496C140.852 46.496 141.956 44.216 141.956 41.336V27.56H138.428V41.432C138.428 42.944 138.092 43.712 136.964 43.712C136.556 43.712 136.196 43.64 135.836 43.52L135.212 46.136C135.74 46.328 136.436 46.496 137.468 46.496ZM140.18 25.4C141.404 25.4 142.244 24.632 142.244 23.456C142.244 22.304 141.404 21.536 140.18 21.536C138.98 21.536 138.14 22.304 138.14 23.456C138.14 24.632 138.98 25.4 140.18 25.4ZM149.58 41.336C153.084 41.336 154.932 39.44 154.932 37.088C154.932 34.592 152.964 33.704 151.188 33.032C149.772 32.504 148.524 32.144 148.524 31.16C148.524 30.392 149.1 29.864 150.324 29.864C151.308 29.864 152.244 30.32 153.204 31.016L154.788 28.88C153.684 28.04 152.172 27.224 150.228 27.224C147.156 27.224 145.212 28.928 145.212 31.328C145.212 33.584 147.108 34.616 148.812 35.264C150.228 35.816 151.62 36.272 151.62 37.28C151.62 38.12 151.02 38.696 149.676 38.696C148.428 38.696 147.276 38.168 146.076 37.232L144.468 39.44C145.812 40.544 147.78 41.336 149.58 41.336Z" fill="#339933"/>
<defs>
<clipPath id="clip0_28_117">
<rect width="60" height="60" fill="white"/>
</clipPath>
</defs>
</svg>
