<svg width="141" height="60" viewBox="0 0 141 60" fill="none" xmlns="http://www.w3.org/2000/svg">
<path d="M32.5 21.25H22.5C17.6675 21.25 13.75 17.3325 13.75 12.5C13.75 7.6675 17.6675 3.75 22.5 3.75H32.5V21.25Z" fill="#E64A19"/>
<path d="M31.25 38.75H22.5C17.6675 38.75 13.75 34.8325 13.75 30C13.75 25.1675 17.6675 21.25 22.5 21.25H31.25V38.75Z" fill="#7C4DFF"/>
<path d="M22.5 56.25C17.6675 56.25 13.75 52.3325 13.75 47.5C13.75 42.6675 17.6675 38.75 22.5 38.75H31.25V47.5C31.25 52.3325 27.3325 56.25 22.5 56.25Z" fill="#66BB6A"/>
<path d="M40 21.25H31.25V3.75H40C44.8325 3.75 48.75 7.6675 48.75 12.5C48.75 17.3325 44.8325 21.25 40 21.25Z" fill="#FF7043"/>
<path d="M40 38.75C44.8325 38.75 48.75 34.8325 48.75 30C48.75 25.1675 44.8325 21.25 40 21.25C35.1675 21.25 31.25 25.1675 31.25 30C31.25 34.8325 35.1675 38.75 40 38.75Z" fill="#29B6F6"/>
<path d="M70.184 41H73.736V33.8H80.048V30.824H73.736V26.192H81.128V23.216H70.184V41ZM83.9351 41H87.4631V27.56H83.9351V41ZM85.7111 25.4C86.9111 25.4 87.7511 24.632 87.7511 23.456C87.7511 22.304 86.9111 21.536 85.7111 21.536C84.4871 21.536 83.6471 22.304 83.6471 23.456C83.6471 24.632 84.4871 25.4 85.7111 25.4ZM95.9521 46.832C100.44 46.832 103.272 44.768 103.272 42.056C103.272 39.704 101.496 38.696 98.2561 38.696H95.9761C94.3921 38.696 93.8641 38.312 93.8641 37.592C93.8641 37.04 94.0801 36.752 94.4401 36.44C95.0161 36.632 95.6401 36.752 96.1681 36.752C99.0481 36.752 101.352 35.216 101.352 32.192C101.352 31.352 101.088 30.608 100.752 30.152H103.032V27.56H98.1841C97.6321 27.368 96.9121 27.224 96.1681 27.224C93.3121 27.224 90.7441 28.928 90.7441 32.072C90.7441 33.656 91.6081 34.928 92.5441 35.6V35.696C91.7281 36.272 91.0321 37.208 91.0321 38.216C91.0321 39.32 91.5601 40.016 92.2561 40.472V40.592C91.0321 41.288 90.3361 42.248 90.3361 43.376C90.3361 45.752 92.7841 46.832 95.9521 46.832ZM96.1681 34.568C94.9921 34.568 94.0561 33.68 94.0561 32.072C94.0561 30.512 94.9681 29.624 96.1681 29.624C97.3681 29.624 98.2801 30.512 98.2801 32.072C98.2801 33.68 97.3441 34.568 96.1681 34.568ZM96.4801 44.6C94.5361 44.6 93.2881 43.952 93.2881 42.824C93.2881 42.272 93.5521 41.744 94.1521 41.264C94.6321 41.384 95.2081 41.456 96.0241 41.456H97.6561C99.0961 41.456 99.8881 41.696 99.8881 42.656C99.8881 43.712 98.4961 44.6 96.4801 44.6ZM105.544 41H109.072V31.76C110.008 30.752 110.872 30.248 111.64 30.248C112.912 30.248 113.536 30.968 113.536 33.056V41H117.04V31.76C118 30.752 118.864 30.248 119.632 30.248C120.904 30.248 121.504 30.968 121.504 33.056V41H125.032V32.624C125.032 29.24 123.712 27.224 120.856 27.224C119.104 27.224 117.808 28.28 116.584 29.576C115.936 28.088 114.808 27.224 112.888 27.224C111.136 27.224 109.888 28.184 108.76 29.36H108.688L108.424 27.56H105.544V41ZM131.989 41.336C133.525 41.336 134.869 40.568 136.045 39.56H136.141L136.381 41H139.261V33.152C139.261 29.264 137.509 27.224 134.101 27.224C131.989 27.224 130.069 28.016 128.485 29L129.757 31.328C131.005 30.608 132.205 30.056 133.453 30.056C135.109 30.056 135.685 31.064 135.757 32.384C130.333 32.96 128.005 34.472 128.005 37.352C128.005 39.632 129.589 41.336 131.989 41.336ZM133.141 38.576C132.109 38.576 131.365 38.12 131.365 37.064C131.365 35.864 132.469 34.952 135.757 34.544V37.256C134.893 38.096 134.149 38.576 133.141 38.576Z" fill="black"/>
</svg>
